<svg width="400" height="400" viewBox="0 0 400 400" fill="none" xmlns="http://www.w3.org/2000/svg">
  <rect width="400" height="400" fill="#F9FAFB"/>
  <path d="M80 120C80 109.954 88.9543 101 99 101H135.172C140.702 101 145.989 103.344 149.757 107.515L170.243 130.485C174.011 134.656 179.298 137 184.828 137H301C311.046 137 320 145.954 320 156V300C320 310.046 311.046 319 301 319H99C88.9543 319 80 310.046 80 300V120Z" fill="#FEF3C7"/>
  <path d="M80 120C80 109.954 88.9543 101 99 101H135.172C140.702 101 145.989 103.344 149.757 107.515L170.243 130.485C174.011 134.656 179.298 137 184.828 137H301C311.046 137 320 145.954 320 156V300C320 310.046 311.046 319 301 319H99C88.9543 319 80 310.046 80 300V120Z" stroke="#FBBF24" stroke-width="2"/>
  <path d="M99 319H301C311.046 319 320 310.046 320 300V187.897C320 182.517 317.754 177.367 313.75 173.75L275.25 139.25C271.246 135.633 266.003 133.5 260.5 133.5H119C92.49 133.5 80 151.5 80 170V300C80 310.046 88.9543 319 99 319Z" fill="#FDE68A"/>
  <path d="M99 319H301C311.046 319 320 310.046 320 300V187.897C320 182.517 317.754 177.367 313.75 173.75L275.25 139.25C271.246 135.633 266.003 133.5 260.5 133.5H119C92.49 133.5 80 151.5 80 170V300C80 310.046 88.9543 319 99 319Z" stroke="#F59E0B" stroke-width="2"/>
</svg>
