<svg width="400" height="400" viewBox="0 0 400 400" fill="none" xmlns="http://www.w3.org/2000/svg">
  <rect width="400" height="400" fill="#F9FAFB"/>
  <rect x="80" y="60" width="240" height="280" rx="8" fill="white" stroke="#E5E7EB" stroke-width="2"/>
  <path d="M170 300H230V320H170V300Z" fill="#EF4444"/>
  <path d="M120 260H280V280H120V260Z" fill="#F3F4F6"/>
  <path d="M120 220H280V240H120V220Z" fill="#F3F4F6"/>
  <path d="M120 180H280V200H120V180Z" fill="#F3F4F6"/>
  <rect x="100" y="80" width="200" height="80" rx="4" fill="#FEE2E2"/>
  <path d="M140 100H260V120H140V100Z" fill="#FECACA"/>
  <path d="M140 130H200V150H140V130Z" fill="#FECACA"/>
  <path d="M180 90L150 130H210L180 90Z" fill="#EF4444"/>
  <path d="M220 90L190 130H250L220 90Z" fill="#EF4444"/>
  <path d="M200 130L170 170H230L200 130Z" fill="#EF4444"/>
</svg>
