<svg width="400" height="400" viewBox="0 0 400 400" fill="none" xmlns="http://www.w3.org/2000/svg">
  <rect width="400" height="400" fill="#F9FAFB"/>
  <rect x="80" y="60" width="240" height="280" rx="8" fill="white" stroke="#E5E7EB" stroke-width="2"/>
  <path d="M170 300H230V320H170V300Z" fill="#16A34A"/>
  <rect x="100" y="80" width="200" height="200" rx="4" fill="#DCFCE7"/>
  <rect x="100" y="80" width="50" height="25" fill="#BBF7D0"/>
  <rect x="150" y="80" width="50" height="25" fill="#BBF7D0"/>
  <rect x="200" y="80" width="50" height="25" fill="#BBF7D0"/>
  <rect x="250" y="80" width="50" height="25" fill="#BBF7D0"/>
  <rect x="100" y="105" width="50" height="25" fill="#DCFCE7"/>
  <rect x="150" y="105" width="50" height="25" fill="#DCFCE7"/>
  <rect x="200" y="105" width="50" height="25" fill="#DCFCE7"/>
  <rect x="250" y="105" width="50" height="25" fill="#DCFCE7"/>
  <rect x="100" y="130" width="50" height="25" fill="#BBF7D0"/>
  <rect x="150" y="130" width="50" height="25" fill="#BBF7D0"/>
  <rect x="200" y="130" width="50" height="25" fill="#BBF7D0"/>
  <rect x="250" y="130" width="50" height="25" fill="#BBF7D0"/>
  <rect x="100" y="155" width="50" height="25" fill="#DCFCE7"/>
  <rect x="150" y="155" width="50" height="25" fill="#DCFCE7"/>
  <rect x="200" y="155" width="50" height="25" fill="#DCFCE7"/>
  <rect x="250" y="155" width="50" height="25" fill="#DCFCE7"/>
  <rect x="100" y="180" width="50" height="25" fill="#BBF7D0"/>
  <rect x="150" y="180" width="50" height="25" fill="#BBF7D0"/>
  <rect x="200" y="180" width="50" height="25" fill="#BBF7D0"/>
  <rect x="250" y="180" width="50" height="25" fill="#BBF7D0"/>
  <rect x="100" y="205" width="50" height="25" fill="#DCFCE7"/>
  <rect x="150" y="205" width="50" height="25" fill="#DCFCE7"/>
  <rect x="200" y="205" width="50" height="25" fill="#DCFCE7"/>
  <rect x="250" y="205" width="50" height="25" fill="#DCFCE7"/>
  <rect x="100" y="230" width="50" height="25" fill="#BBF7D0"/>
  <rect x="150" y="230" width="50" height="25" fill="#BBF7D0"/>
  <rect x="200" y="230" width="50" height="25" fill="#BBF7D0"/>
  <rect x="250" y="230" width="50" height="25" fill="#BBF7D0"/>
  <rect x="100" y="255" width="50" height="25" fill="#DCFCE7"/>
  <rect x="150" y="255" width="50" height="25" fill="#DCFCE7"/>
  <rect x="200" y="255" width="50" height="25" fill="#DCFCE7"/>
  <rect x="250" y="255" width="50" height="25" fill="#DCFCE7"/>
  <line x1="150" y1="80" x2="150" y2="280" stroke="#16A34A" stroke-width="1"/>
  <line x1="200" y1="80" x2="200" y2="280" stroke="#16A34A" stroke-width="1"/>
  <line x1="250" y1="80" x2="250" y2="280" stroke="#16A34A" stroke-width="1"/>
  <line x1="100" y1="105" x2="300" y2="105" stroke="#16A34A" stroke-width="1"/>
  <line x1="100" y1="130" x2="300" y2="130" stroke="#16A34A" stroke-width="1"/>
  <line x1="100" y1="155" x2="300" y2="155" stroke="#16A34A" stroke-width="1"/>
  <line x1="100" y1="180" x2="300" y2="180" stroke="#16A34A" stroke-width="1"/>
  <line x1="100" y1="205" x2="300" y2="205" stroke="#16A34A" stroke-width="1"/>
  <line x1="100" y1="230" x2="300" y2="230" stroke="#16A34A" stroke-width="1"/>
  <line x1="100" y1="255" x2="300" y2="255" stroke="#16A34A" stroke-width="1"/>
</svg>
