<svg xmlns="http://www.w3.org/2000/svg" viewBox="0 0 400 300">
  <rect width="400" height="300" fill="#f8f9fa" rx="8" ry="8"/>
  <rect x="50" y="40" width="300" height="40" rx="4" fill="#4361ee" opacity="0.1"/>
  <circle cx="70" cy="60" r="10" fill="#4361ee"/>
  <rect x="90" y="55" width="100" height="10" rx="2" fill="#4361ee"/>
  <rect x="280" y="55" width="50" height="10" rx="2" fill="#4361ee"/>
  <rect x="50" y="100" width="300" height="50" rx="4" fill="white" stroke="#4361ee" stroke-width="1"/>
  <circle cx="70" cy="125" r="10" fill="#4895ef"/>
  <rect x="90" y="115" width="120" height="8" rx="2" fill="#333"/>
  <rect x="90" y="130" width="80" height="6" rx="2" fill="#666"/>
  <rect x="280" y="120" width="50" height="10" rx="2" fill="#4361ee" opacity="0.7"/>
  <rect x="50" y="160" width="300" height="50" rx="4" fill="white" stroke="#4361ee" stroke-width="1"/>
  <circle cx="70" cy="185" r="10" fill="#7209b7"/>
  <rect x="90" y="175" width="120" height="8" rx="2" fill="#333"/>
  <rect x="90" y="190" width="80" height="6" rx="2" fill="#666"/>
  <rect x="280" y="180" width="50" height="10" rx="2" fill="#4361ee" opacity="0.7"/>
  <rect x="50" y="220" width="300" height="50" rx="4" fill="white" stroke="#4361ee" stroke-width="1"/>
  <circle cx="70" cy="245" r="10" fill="#f72585"/>
  <rect x="90" y="235" width="120" height="8" rx="2" fill="#333"/>
  <rect x="90" y="250" width="80" height="6" rx="2" fill="#666"/>
  <rect x="280" y="240" width="50" height="10" rx="2" fill="#4361ee" opacity="0.7"/>
</svg>
