<svg xmlns="http://www.w3.org/2000/svg" viewBox="0 0 600 200" width="600" height="200">
  <defs>
    <linearGradient id="primaryGradient" x1="0%" y1="0%" x2="100%" y2="100%">
      <stop offset="0%" stop-color="#4361EE" stop-opacity="1" />
      <stop offset="100%" stop-color="#7209B7" stop-opacity="1" />
    </linearGradient>
    <filter id="glow" x="-20%" y="-20%" width="140%" height="140%">
      <feGaussianBlur stdDeviation="2" result="blur" />
      <feComposite in="SourceGraphic" in2="blur" operator="over" />
    </filter>
  </defs>

  <!-- Data-Driven Decisions Icon -->
  <g transform="translate(100, 100)">
    <circle cx="0" cy="0" r="60" fill="#f8f9fa" stroke="url(#primaryGradient)" stroke-width="2" />
    
    <!-- Chart line element -->
    <polyline points="-35,-20 -15,15 5,-5 25,30" stroke="#4361EE" stroke-width="3" fill="none" stroke-linecap="round" stroke-linejoin="round" />
    
    <!-- Data points -->
    <circle cx="-35" cy="-20" r="4" fill="#7209B7" />
    <circle cx="-15" cy="15" r="4" fill="#7209B7" />
    <circle cx="5" cy="-5" r="4" fill="#7209B7" />
    <circle cx="25" cy="30" r="4" fill="#7209B7" />
    
    <!-- Growth arrow -->
    <path d="M-40,-30 L40,30" stroke="#4CC9F0" stroke-width="2" stroke-dasharray="5,3" />
    <polygon points="40,30 30,25 35,15" fill="#4CC9F0" />
  </g>

  <!-- Client Partnership Icon -->
  <g transform="translate(300, 100)">
    <circle cx="0" cy="0" r="60" fill="#f8f9fa" stroke="url(#primaryGradient)" stroke-width="2" />
    
    <!-- Handshake symbolizing partnership -->
    <g filter="url(#glow)">
      <!-- Left hand -->
      <path d="M-35,0 C-30,5 -25,-5 -20,0 C-15,5 -10,-5 -5,0" stroke="#4361EE" stroke-width="3" fill="none" stroke-linecap="round" />
      
      <!-- Right hand -->
      <path d="M5,0 C10,5 15,-5 20,0 C25,5 30,-5 35,0" stroke="#7209B7" stroke-width="3" fill="none" stroke-linecap="round" />
      
      <!-- Connection point -->
      <circle cx="0" cy="0" r="5" fill="#4CC9F0" />
    </g>
    
    <!-- Connection lines -->
    <path d="M-30,-30 L-15,-15" stroke="#4361EE" stroke-width="1.5" stroke-dasharray="3,2" />
    <path d="M30,-30 L15,-15" stroke="#7209B7" stroke-width="1.5" stroke-dasharray="3,2" />
    <path d="M-30,30 L-15,15" stroke="#4361EE" stroke-width="1.5" stroke-dasharray="3,2" />
    <path d="M30,30 L15,15" stroke="#7209B7" stroke-width="1.5" stroke-dasharray="3,2" />
  </g>

  <!-- Innovative Solutions Icon -->
  <g transform="translate(500, 100)">
    <circle cx="0" cy="0" r="60" fill="#f8f9fa" stroke="url(#primaryGradient)" stroke-width="2" />
    
    <!-- Lightbulb -->
    <g filter="url(#glow)">
      <path d="M0,-35 L0,-15" stroke="#4361EE" stroke-width="2" fill="none" />
      <path d="M0,-15 C-20,-15 -20,15 0,15 C20,15 20,-15 0,-15" stroke="#4361EE" stroke-width="2" fill="none" />
      
      <!-- Filament -->
      <path d="M0,15 L0,25" stroke="#4361EE" stroke-width="2" fill="none" />
      
      <!-- Base -->
      <rect x="-10" y="25" width="20" height="5" rx="2" fill="#7209B7" />
      <rect x="-7" y="30" width="14" height="3" rx="1" fill="#7209B7" />
    </g>
    
    <!-- Idea sparkles -->
    <circle cx="-25" cy="-25" r="3" fill="#4CC9F0" />
    <circle cx="25" cy="-15" r="2" fill="#4CC9F0" />
    <circle cx="20" cy="25" r="2.5" fill="#4CC9F0" />
    <circle cx="-15" cy="30" r="2" fill="#4CC9F0" />
    
    <!-- Innovation rays -->
    <line x1="-30" y1="-30" x2="-40" y2="-40" stroke="#4361EE" stroke-width="1.5" />
    <line x1="30" y1="-30" x2="40" y2="-40" stroke="#4361EE" stroke-width="1.5" />
    <line x1="-30" y1="30" x2="-40" y2="40" stroke="#4361EE" stroke-width="1.5" />
    <line x1="30" y1="30" x2="40" y2="40" stroke="#4361EE" stroke-width="1.5" />
  </g>
</svg>
