<?xml version="1.0" encoding="UTF-8"?>
<svg width="200px" height="60px" viewBox="0 0 200 60" version="1.1" xmlns="http://www.w3.org/2000/svg" xmlns:xlink="http://www.w3.org/1999/xlink">
    <title>RevelateOps Logo White</title>
    <g stroke="none" fill="none" fill-rule="evenodd">
        <g fill="#FFFFFF" fill-rule="nonzero">
            <path d="M30.872,13.412 C36.76,13.412 41.54,18.192 41.54,24.08 C41.54,29.968 36.76,34.748 30.872,34.748 L20.204,34.748 L20.204,46.588 L13.292,46.588 L13.292,13.412 L30.872,13.412 Z M30.872,27.836 C32.939,27.836 34.628,26.147 34.628,24.08 C34.628,22.013 32.939,20.324 30.872,20.324 L20.204,20.324 L20.204,27.836 L30.872,27.836 Z"></path>
            <path d="M58.048,13.412 L58.048,39.676 L68.716,39.676 L68.716,46.588 L51.136,46.588 L51.136,13.412 L58.048,13.412 Z"></path>
            <path d="M74.048,13.412 L87.656,13.412 C95.316,13.412 101.352,19.448 101.352,27.108 L101.352,32.892 C101.352,40.552 95.316,46.588 87.656,46.588 L74.048,46.588 L74.048,13.412 Z M87.656,39.676 C91.447,39.676 94.44,36.683 94.44,32.892 L94.44,27.108 C94.44,23.317 91.447,20.324 87.656,20.324 L80.96,20.324 L80.96,39.676 L87.656,39.676 Z"></path>
            <path d="M120.94,13.412 L120.94,39.676 L131.608,39.676 L131.608,46.588 L114.028,46.588 L114.028,13.412 L120.94,13.412 Z"></path>
            <path d="M145.252,13.412 L158.86,13.412 C166.52,13.412 172.556,19.448 172.556,27.108 L172.556,32.892 C172.556,40.552 166.52,46.588 158.86,46.588 L145.252,46.588 L145.252,13.412 Z M158.86,39.676 C162.651,39.676 165.644,36.683 165.644,32.892 L165.644,27.108 C165.644,23.317 162.651,20.324 158.86,20.324 L152.164,20.324 L152.164,39.676 L158.86,39.676 Z"></path>
            <path d="M187.376,13.412 L187.376,46.588 L180.464,46.588 L180.464,13.412 L187.376,13.412 Z"></path>
        </g>
    </g>
</svg>
