<svg xmlns="http://www.w3.org/2000/svg" width="180" height="48" viewBox="0 0 180 48" fill="none">
  <path d="M22.5 10C15.6 10 10 15.6 10 22.5C10 29.4 15.6 35 22.5 35C29.4 35 35 29.4 35 22.5C35 15.6 29.4 10 22.5 10ZM22.5 32C17.3 32 13 27.7 13 22.5C13 17.3 17.3 13 22.5 13C27.7 13 32 17.3 32 22.5C32 27.7 27.7 32 22.5 32Z" fill="#4F46E5"/>
  <path d="M22.5 16C19 16 16 19 16 22.5C16 26 19 29 22.5 29C26 29 29 26 29 22.5C29 19 26 16 22.5 16ZM22.5 26C20.6 26 19 24.4 19 22.5C19 20.6 20.6 19 22.5 19C24.4 19 26 20.6 26 22.5C26 24.4 24.4 26 22.5 26Z" fill="#4F46E5"/>
  <path d="M48 18H45V15H42V18H39V21H42V24H45V21H48V18Z" fill="#4F46E5"/>
  <path d="M55 15H52V21H49V15H46V27H49V24H52V27H55V15Z" fill="#4F46E5"/>
  <path d="M62 15H59L56 27H59L59.5 24H61.5L62 27H65L62 15ZM60 21L60.5 18.5L61 21H60Z" fill="#4F46E5"/>
  <path d="M72 15H69L66 27H69L69.5 24H71.5L72 27H75L72 15ZM70 21L70.5 18.5L71 21H70Z" fill="#4F46E5"/>
  <path d="M82 27H79V18H77V15H84V18H82V27Z" fill="#4F46E5"/>
  <path d="M92 27H85V15H92V18H88V19.5H91V22.5H88V24H92V27Z" fill="#4F46E5"/>
  <path d="M100 18H97V15H94V18H91V21H94V24H97V21H100V18Z" fill="#4F46E5"/>
  <path d="M107 15H104V27H107V15Z" fill="#4F46E5"/>
  <path d="M115 15H112L109 27H112L112.5 24H114.5L115 27H118L115 15ZM113 21L113.5 18.5L114 21H113Z" fill="#4F46E5"/>
  <path d="M125 15H122V24H119V15H116V27H119H122H125V15Z" fill="#4F46E5"/>
  <path d="M133 15H130L127 27H130L130.5 24H132.5L133 27H136L133 15ZM131 21L131.5 18.5L132 21H131Z" fill="#4F46E5"/>
  <path d="M141 27H138V15H145V18H141V27Z" fill="#4F46E5"/>
  <path d="M151 15H148V21H145V15H142V27H145V24H148V27H151V15Z" fill="#4F46E5"/>
  <path d="M158 15H155L152 27H155L155.5 24H157.5L158 27H161L158 15ZM156 21L156.5 18.5L157 21H156Z" fill="#4F46E5"/>
  <path d="M168 15H165L162 27H165L165.5 24H167.5L168 27H171L168 15ZM166 21L166.5 18.5L167 21H166Z" fill="#4F46E5"/>
  <path d="M178 18H175V15H172V18H169V21H172V24H175V21H178V18Z" fill="#4F46E5"/>
</svg>
